<?xml version="1.0" encoding="utf-8"?>
<!-- Generator: Adobe Illustrator 24.0.1, SVG Export Plug-In . SVG Version: 6.00 Build 0)  -->
<svg version="1.1" id="Layer_1" xmlns="http://www.w3.org/2000/svg" xmlns:xlink="http://www.w3.org/1999/xlink" x="0px" y="0px"
	 viewBox="0 0 80 80" style="enable-background:new 0 0 80 80;" xml:space="preserve">
<style type="text/css">
	.st0{fill:#2A9D8F;}
</style>
<title>50Asset 1</title>
<g id="Layer_2_1_">
	<g id="Layer_1-2">
		<path class="st0" d="M34.8,42c-3.8-0.4-7.6-0.8-11.3-0.8s-7.6,0.2-11.3,0.8c-1.7,0.2-3,1.6-3.2,3.2c-1,7.6-1,15.2,0,22.7
			c0.2,1.7,1.6,2.9,3.2,3.2c3.8,0.4,7.6,0.8,11.3,0.8s7.6-0.2,11.3-0.8c1.7-0.2,3.1-1.6,3.2-3.2c1-7.6,1-15.1,0-22.6
			C37.8,43.6,36.5,42.3,34.8,42L34.8,42z M33.3,66.5C30,66.9,26.7,67,23.4,67s-6.6-0.1-9.8-0.5c-0.8-6.6-0.8-13.2,0-19.7
			c6.6-0.8,13.2-0.8,19.7,0C34,53.3,34,59.9,33.3,66.5L33.3,66.5z M68,42c-3.8-0.4-7.6-0.8-11.3-0.8c-3.9,0-7.6,0.2-11.3,0.8
			c-1.7,0.2-3,1.6-3.2,3.2c-1,7.6-1,15.2,0,22.7c0.2,1.7,1.6,2.9,3.2,3.2c3.8,0.4,7.6,0.8,11.3,0.8s7.6-0.2,11.3-0.8
			c1.7-0.2,3.1-1.6,3.2-3.2c1-7.6,1-15.1,0-22.6C71,43.6,69.7,42.3,68,42z M66.6,66.5C63.4,66.9,60,67,56.8,67
			c-3.2,0-6.6-0.1-9.8-0.5c-0.8-6.6-0.8-13.2,0-19.7c6.6-0.8,13.2-0.8,19.6,0C67.2,53.3,67.2,59.9,66.6,66.5L66.6,66.5z M34.8,8.9
			C31,8.4,27.2,8.1,23.4,8.1c-3.9,0-7.6,0.2-11.4,0.8c-1.7,0.2-3,1.6-3.2,3.2c-1,7.6-1,15.2,0,22.7c0.2,1.7,1.6,3,3.2,3.2
			c3.8,0.4,7.6,0.8,11.3,0.8s7.6-0.2,11.3-0.8c1.7-0.1,3.1-1.5,3.2-3.2c1-7.6,1-15.1,0-22.7C37.8,10.4,36.5,9.1,34.8,8.9z
			 M33.3,33.3c-3.2,0.4-6.6,0.5-9.8,0.5s-6.6-0.1-9.8-0.5c-0.8-6.6-0.8-13.2-0.1-19.7c3.2-0.4,6.6-0.5,9.8-0.5s6.6,0.1,9.8,0.5
			C34,20.1,34,26.7,33.3,33.3z M45.3,38c3.8,0.4,7.6,0.8,11.3,0.8S64.2,38.5,68,38c1.7-0.2,3.1-1.5,3.2-3.2c1-7.6,1-15.2,0-22.7
			C71,10.4,69.6,9,68,8.9c-7.6-1-15.2-1-22.7,0c-1.7,0.2-3,1.6-3.2,3.2c-1,7.6-1,15.2,0,22.7C42.3,36.5,43.6,37.8,45.3,38L45.3,38z
			 M46.9,13.5c3.2-0.4,6.6-0.5,9.8-0.5c3.2,0,6.6,0.1,9.8,0.5c0.8,6.6,0.8,13.2,0,19.7c-3.2,0.4-6.6,0.5-9.8,0.5s-6.6-0.1-9.8-0.5
			C46.1,26.7,46.1,20.1,46.9,13.5L46.9,13.5z M30.4,23.4c0,1.4-1.1,2.5-2.5,2.5h-2.2V28c-0.1,1.4-1.3,2.4-2.6,2.3
			C21.9,30.1,21,29.2,21,28v-2.1h-2.1c-1.4-0.1-2.4-1.3-2.3-2.6c0.1-1.3,1.1-2.3,2.3-2.3H21V19c0.1-1.4,1.3-2.4,2.6-2.3
			c1.3,0.1,2.3,1.1,2.3,2.3v2.1h2.1C29.4,21,30.4,22,30.4,23.4C30.4,23.3,30.4,23.4,30.4,23.4z M49.8,23.4c0-1.4,1.1-2.5,2.5-2.5
			h9.1c1.4,0.1,2.4,1.3,2.3,2.6c-0.1,1.3-1.1,2.3-2.3,2.3h-9.2C50.7,25.9,49.7,24.8,49.8,23.4C49.7,23.4,49.7,23.4,49.8,23.4
			L49.8,23.4z M28.4,55.2l-1.5,1.5l1.5,1.5c1.1,0.9,1.1,2.4,0.2,3.5c-0.9,1.1-2.4,1.1-3.5,0.2c-0.1-0.1-0.2-0.1-0.3-0.3L23.3,60
			l-1.4,1.6c-1.1,0.8-2.6,0.6-3.5-0.4c-0.8-0.9-0.8-2.2,0-3l1.5-1.5l-1.5-1.5c-1-1-0.9-2.6,0.1-3.5c1-0.9,2.4-0.9,3.3,0l1.5,1.5
			l1.4-1.5c1-1,2.6-1,3.6,0C29.4,52.7,29.4,54.3,28.4,55.2z M63.7,53.3c0,1.4-1.1,2.5-2.5,2.5h-9.1c-1.4,0-2.5-1.1-2.5-2.5
			s1.1-2.5,2.5-2.5l0,0h9.1C62.6,50.8,63.7,51.9,63.7,53.3z M63.7,60.1c0,1.4-1.1,2.5-2.5,2.5h-9.1c-1.4,0-2.5-1.1-2.5-2.5
			c0-1.4,1.1-2.5,2.5-2.5l0,0h9.1C62.6,57.6,63.7,58.7,63.7,60.1L63.7,60.1z"/>
	</g>
</g>
</svg>
